<?xml version="1.0" standalone="no"?>
<!DOCTYPE svg PUBLIC "-//W3C//DTD SVG 20010904//EN"
 "http://www.w3.org/TR/2001/REC-SVG-20010904/DTD/svg10.dtd">
<svg version="1.0" xmlns="http://www.w3.org/2000/svg"
 width="512.000000pt" height="512.000000pt" viewBox="0 0 512.000000 512.000000"
 preserveAspectRatio="xMidYMid meet">

<g transform="translate(0.000000,512.000000) scale(0.100000,-0.100000)"
fill="#000000" stroke="none">
<path d="M1147 5109 c-122 -29 -220 -131 -247 -257 -8 -37 14 -544 99 -2263
60 -1217 114 -2246 119 -2285 16 -125 84 -222 192 -273 l55 -26 1195 0 1195 0
55 26 c109 52 175 145 192 272 5 40 59 1069 119 2286 85 1719 107 2226 99
2263 -22 105 -90 190 -189 237 l-56 26 -1395 2 c-793 0 -1411 -3 -1433 -8z
m2793 -227 c21 -10 42 -31 52 -52 15 -33 14 -70 -14 -625 -16 -324 -31 -591
-33 -593 -1 -1 -65 20 -141 48 -269 97 -391 120 -656 120 -229 0 -354 -21
-571 -96 -305 -105 -372 -117 -617 -117 -225 1 -295 14 -568 105 -119 40 -219
74 -222 76 -3 2 -17 238 -32 525 -25 490 -25 524 -10 557 10 21 31 42 52 52
33 17 120 18 1380 18 1260 0 1347 -1 1380 -18z m-493 -1346 c40 -8 166 -46
280 -85 l208 -70 -3 -53 c-48 -1013 -113 -2328 -118 -2375 l-6 -63 -1248 0
-1248 0 -6 63 c-11 118 -129 2548 -124 2553 3 3 68 -18 143 -45 273 -100 441
-127 710 -118 223 8 339 32 570 116 126 47 240 77 340 90 97 14 414 5 502 -13z
m353 -2898 c-1 -18 -5 -101 -9 -185 -10 -168 -20 -195 -78 -219 -48 -21 -2258
-21 -2306 0 -58 24 -68 51 -78 219 -4 84 -8 167 -9 185 l0 32 1240 0 1240 0 0
-32z"/>
</g>
</svg>
